<svg width="200" height="150" viewBox="0 0 200 150" fill="none" xmlns="http://www.w3.org/2000/svg">
<mask id="path-1-inside-1_1066_41335" fill="white">
<path d="M0 0H200V11H0V0Z"/>
</mask>
<path d="M0 0H200V11H0V0Z" fill="white"/>
<path d="M0 0V-0.5H-0.5V0H0ZM200 0H200.5V-0.5H200V0ZM0 0.5H200V-0.5H0V0.5ZM199.5 0V11H200.5V0H199.5ZM0.5 11V0H-0.5V11H0.5Z" fill="#E5E7EB" mask="url(#path-1-inside-1_1066_41335)"/>
<circle cx="6.5" cy="5.5" r="1.5" fill="#D00C0C"/>
<circle cx="11.5" cy="5.5" r="1.5" fill="#03C95A"/>
<circle cx="16.5" cy="5.5" r="1.5" fill="#FFC107"/>
<path d="M0.25 11.25H199.75V149.75H0.25V11.25Z" fill="white"/>
<path d="M0.25 11.25H199.75V149.75H0.25V11.25Z" stroke="#E5E7EB" stroke-width="0.5"/>
<rect x="0.5" y="11" width="199" height="139" fill="#EDF2F4"/>
<rect x="5.25" y="24.25" width="36.5" height="115.5" fill="white"/>
<rect x="5.25" y="24.25" width="36.5" height="115.5" stroke="#E5E7EB" stroke-width="0.5"/>
<rect x="10" y="30.5" width="15" height="4" rx="2" fill="#F26522"/>
<rect x="10" y="46.5" width="18" height="3" rx="1.5" fill="#DCE5E8"/>
<rect x="10" y="51.5" width="18" height="3" rx="1.5" fill="#DCE5E8"/>
<rect x="10" y="56.5" width="9" height="3" rx="1.5" fill="#DCE5E8"/>
<rect x="10" y="61.5" width="22" height="3" rx="1.5" fill="#DCE5E8"/>
<rect x="10" y="66.5" width="13" height="3" rx="1.5" fill="#DCE5E8"/>
<rect x="10" y="71.5" width="22" height="3" rx="1.5" fill="#DCE5E8"/>
<rect x="10" y="76.5" width="11" height="3" rx="1.5" fill="#DCE5E8"/>
<rect x="10" y="81.5" width="27" height="3" rx="1.5" fill="#DCE5E8"/>
<rect x="10" y="86.5" width="18" height="3" rx="1.5" fill="#DCE5E8"/>
<rect x="10" y="91.5" width="27" height="3" rx="1.5" fill="#DCE5E8"/>
<line x1="10" y1="129.4" x2="37" y2="129.4" stroke="#E5E7EB" stroke-width="0.2"/>
<circle cx="18.5" cy="133.5" r="2" fill="#DCE5E8"/>
<circle cx="23.5" cy="133.5" r="2" fill="#DCE5E8"/>
<circle cx="28.5" cy="133.5" r="2" fill="#DCE5E8"/>
<mask id="path-24-inside-2_1066_41335" fill="white">
<path d="M45 24H194V32H45V24Z"/>
</mask>
<path d="M45 24H194V32H45V24Z" fill="white"/>
<path d="M45 24.5H194V23.5H45V24.5Z" fill="#E5E7EB" mask="url(#path-24-inside-2_1066_41335)"/>
<rect x="50" y="26.5" width="18" height="3" rx="1.5" fill="#DCE5E8"/>
<rect x="70" y="26.5" width="18" height="3" rx="1.5" fill="#DCE5E8"/>
<rect x="90" y="26.5" width="9" height="3" rx="1.5" fill="#DCE5E8"/>
<rect x="101" y="26.5" width="22" height="3" rx="1.5" fill="#DCE5E8"/>
<rect x="125" y="26.5" width="13" height="3" rx="1.5" fill="#DCE5E8"/>
<circle cx="163" cy="28" r="2" fill="#DCE5E8"/>
<circle cx="169" cy="28" r="2" fill="#DCE5E8"/>
<circle cx="175" cy="28" r="2" fill="#DCE5E8"/>
<circle cx="181" cy="28" r="2" fill="#DCE5E8"/>
<circle cx="187" cy="28" r="2" fill="#DCE5E8"/>
<path d="M45 133H194V139H45V133Z" fill="white"/>
<path d="M45 133.25H194V132.75H45V133.25Z" fill="#E5E7EB"/>
<rect width="41" height="2" rx="1" transform="matrix(1 0 0 -1 96.5 137)" fill="#EDF2F4"/>
</svg>
